<svg width="50" height="61" viewBox="0 0 50 61" fill="none" xmlns="http://www.w3.org/2000/svg">
<path d="M11.5877 23.0143C12.7115 22.5911 13.8177 22.157 14.9355 21.7614C16.4065 21.2478 17.906 20.7373 19.4045 20.2642C22.9671 19.1367 26.5444 18.0537 30.1022 16.9114C32.1922 16.2393 34.2461 15.4543 36.3321 14.7743C38.9829 13.9108 41.6436 13.0572 44.3158 12.2817C45.7963 11.8521 46.6962 12.3358 47.3306 13.747C47.5978 14.4057 47.8302 15.0779 48.0267 15.761C48.4464 17.032 48.8521 18.3099 49.2708 19.5642C49.9384 21.5603 50.6307 23.5466 51.2934 25.5427C51.996 27.6594 52.6836 29.7755 53.3559 31.8908C53.8066 33.2993 54.2395 34.7165 54.6437 36.1406C54.9895 37.3373 54.6599 37.9859 53.4647 38.4493C52.1054 38.9693 50.7304 39.4478 49.3495 39.9094C47.0211 40.6824 44.67 41.4394 42.3278 42.1945C39.563 43.0848 36.7971 43.9699 34.0304 44.8497C31.0898 45.7753 28.1444 46.686 25.2 47.5987C23.6393 48.0803 22.0806 48.561 20.515 49.0229C19.0335 49.4604 18.2325 48.9623 17.7455 47.4855C17.1064 45.5419 16.3643 43.6344 15.7083 41.6966C14.8601 39.196 14.0672 36.6778 13.2198 34.1792C12.6244 32.4086 11.9707 30.6595 11.3664 28.8909C11.0061 27.8542 10.6408 26.8175 10.3309 25.7632C9.94797 24.4666 10.3673 23.606 11.5877 23.0143ZM53.0768 38.1237C54.2615 37.5595 54.4278 37.2332 54.2232 36.2871C54.1612 35.9974 54.0675 35.7135 53.9738 35.4247C53.1769 32.9381 52.3868 30.4506 51.576 27.9709C50.8285 25.684 50.0574 23.4089 49.3001 21.127C48.8036 19.636 48.3118 18.1444 47.8246 16.6522C47.5367 15.7768 47.3023 14.8799 46.962 14.028C46.4652 12.7804 45.7218 12.4237 44.4109 12.7079C43.9482 12.8087 43.4951 12.959 43.0421 13.0994C41.2579 13.6523 39.4658 14.1893 37.6854 14.7649C35.1216 15.61 32.5783 16.5214 30.0105 17.3536C26.9047 18.3585 23.7707 19.2763 20.6697 20.301C18.1286 21.1422 15.6326 22.0744 13.1081 22.974C12.5698 23.1422 12.0433 23.346 11.532 23.584C10.748 23.9918 10.4809 24.5972 10.7264 25.4418C11.0361 26.5208 11.3904 27.5949 11.7565 28.6583C12.3707 30.427 13.0373 32.1771 13.6357 33.9487C14.4565 36.3939 15.2071 38.8615 16.0428 41.3019C16.7388 43.3554 17.5041 45.3845 18.2258 47.4302C18.6301 48.5757 19.1939 48.8882 20.3302 48.5549C21.4666 48.2217 22.6593 47.8581 23.8215 47.5022C26.2347 46.7662 28.644 46.0222 31.0563 45.2842C32.9819 44.6934 34.9135 44.1144 36.8332 43.5117C38.9242 42.8465 41.0083 42.1526 43.0924 41.4636C44.8115 40.8937 46.5297 40.3185 48.2468 39.738C49.9659 39.178 51.6792 38.5962 53.0828 38.1208L53.0768 38.1237Z" fill="#84B140"/>
<path d="M16.304 51.3068C17.2884 50.9453 18.1966 50.5795 19.1254 50.28C21.072 49.6517 23.0322 49.0611 24.9846 48.4496C27.9033 47.5348 30.823 46.627 33.726 45.6954C35.9297 44.9891 38.1217 44.2394 40.3225 43.5173C42.7755 42.7172 45.2344 41.9339 47.6855 41.1299C49.2384 40.6225 50.7835 40.0894 52.3345 39.5682C53.7697 39.0919 55.2148 38.6355 56.6529 38.1701C56.9061 38.0892 57.173 38.0606 57.4301 37.9876C57.4984 37.9573 57.5725 37.9422 57.6472 37.9436C57.7219 37.9449 57.7954 37.9626 57.8625 37.9953C57.9297 38.0281 57.9888 38.0751 58.0359 38.1331C58.083 38.1911 58.1168 38.2588 58.135 38.3312C58.1819 38.441 58.2349 38.548 58.2937 38.6519C59.1424 40.3267 58.6038 41.3449 56.8786 41.9672C55.4313 42.4888 53.9352 42.8819 52.4722 43.3619C50.4406 44.0324 48.4245 44.7443 46.3928 45.4147C44.3612 46.0851 42.2703 46.7355 40.2139 47.4108C38.6926 47.9173 37.1762 48.4436 35.6519 48.9442C33.5956 49.6194 31.5304 50.267 29.471 50.9412C27.9497 51.4477 26.4469 52.0166 24.9051 52.4618C23.031 53.0172 21.1344 53.5025 19.2448 53.972C17.6172 54.3783 16.8712 53.4536 16.4927 52.2806C16.4094 51.9603 16.3464 51.635 16.304 51.3068V51.3068ZM16.9214 51.5582C16.8957 53.025 17.7214 53.7722 19.1359 53.5428C19.3128 53.5207 19.4881 53.4874 19.6608 53.4432C22.3073 52.6755 24.9685 51.9474 27.5984 51.1213C30.3955 50.2298 33.1733 49.2542 35.9636 48.329C38.1012 47.6186 40.2465 46.9289 42.3919 46.2342C44.649 45.5015 46.9091 44.7846 49.1643 44.043C51.647 43.2282 54.1365 42.4322 56.5977 41.5591C58.2912 40.9673 58.5767 40.2444 57.7896 38.7388C57.7387 38.6578 57.683 38.5801 57.6226 38.506C57.5115 38.4785 57.3963 38.472 57.2829 38.4868C43.8515 42.8328 30.3976 47.19 16.9214 51.5582V51.5582Z" fill="#84B140"/>
<path d="M7.36182 25.2801C6.86592 24.5589 7.38899 22.7149 8.29065 21.3362C9.52127 19.4615 11.4657 18.2894 13.42 18.357C13.1379 18.5078 12.9892 18.6008 12.8273 18.67C12.1478 18.9611 11.4258 19.1772 10.7905 19.5418C8.90407 20.6239 8.01929 22.4001 7.53625 24.4331C7.46978 24.7151 7.41892 24.9977 7.36182 25.2801Z" fill="#84B140"/>
<path d="M9.40957 17.9402C7.06675 19.4105 5.72603 21.3906 5.55542 24.2914C5.30878 23.9808 5.16579 23.8725 5.16271 23.7848C5.25308 21.2875 6.89886 18.6949 9.05284 17.8648C9.09561 17.8492 9.15841 17.8842 9.40957 17.9402Z" fill="#84B140"/>
<path d="M19.6854 43.7136C19.3595 42.7314 19.0217 41.7501 18.7036 40.764C18.2061 39.2111 17.7116 37.6543 17.2329 36.0946C16.6401 34.1699 16.075 32.2315 15.4743 30.3108C15.1027 29.1219 14.7253 27.931 14.2716 26.7705C13.859 25.7129 14.4624 24.7907 15.3321 24.4317C16.1257 24.103 16.9525 23.8565 17.7744 23.6C20.2648 22.8208 22.7592 22.0545 25.2526 21.2812C27.5195 20.5798 29.786 19.8778 32.0523 19.1751C34.065 18.5461 36.0709 17.8983 38.0856 17.2732C39.5 16.8344 40.9153 16.3976 42.3413 16.0073C43.4687 15.6957 44.1123 16.05 44.4842 17.145C45.1265 19.0452 45.739 20.9798 46.3882 22.8889C47.1809 25.2224 48.025 27.5353 48.7919 29.8765C49.3082 31.4176 49.7345 32.9959 50.1539 34.5702C50.4594 35.7203 50.1415 36.3976 49.0284 36.8524C47.9578 37.2887 46.8403 37.6052 45.7404 37.9672C43.6573 38.6516 41.5729 39.3316 39.4872 40.0074C37.4833 40.6542 35.4696 41.2763 33.4696 41.936C31.8336 42.4746 30.2259 43.0954 28.5841 43.6024C26.5169 44.2411 24.4937 45.033 22.3476 45.4125C21.2968 45.5999 20.6193 45.3167 20.1251 44.4078C20.0066 44.1683 19.888 43.9288 19.7695 43.6893L19.6854 43.7136ZM20.0541 43.403L20.1412 43.3747L20.3371 43.7706C20.975 45.0593 21.4423 45.2864 22.8268 44.9018C23.968 44.5834 25.0976 44.2116 26.2301 43.8606C27.2794 43.5359 28.3307 43.2201 29.3723 42.8746C31.769 42.0802 34.1608 41.271 36.5605 40.4678C37.9097 40.0169 39.2605 39.5692 40.613 39.1249C42.1916 38.6065 43.7722 38.0903 45.3548 37.5765C46.4833 37.2126 47.6373 36.915 48.7434 36.4907C49.7783 36.0919 50.004 35.4823 49.6694 34.423C49.4685 33.7831 49.2529 33.1234 49.0442 32.4725C48.1847 29.7901 47.3323 27.1067 46.464 24.4263C45.9065 22.7059 45.335 20.9884 44.7492 19.2738C44.4895 18.5151 44.218 17.7574 43.8949 17.0251C43.6111 16.3769 43.3596 16.2771 42.6983 16.3851C42.5502 16.4129 42.4039 16.4499 42.2603 16.4959C39.7897 17.2455 37.3162 17.9843 34.8505 18.7488C31.7578 19.7053 28.6649 20.6915 25.584 21.652C23.0342 22.4507 20.4814 23.2385 17.9316 24.0372C17.1322 24.2585 16.3445 24.5201 15.5715 24.8209C14.6572 25.2143 14.4516 25.74 14.7184 26.6874C14.8411 27.1195 15.0094 27.5292 15.146 27.9545C15.7732 29.904 16.4015 31.8506 17.0159 33.804C17.484 35.2975 17.9264 36.8037 18.4043 38.312C18.9387 40.0241 19.5048 41.7106 20.0541 43.403V43.403Z" fill="#84B140"/>
<path d="M34.336 46.9383C34.8437 47.4263 35.3856 47.3011 35.9266 47.1195C37.2778 46.6676 38.6289 46.2207 39.9742 45.7569C40.2407 45.6284 40.4958 45.4774 40.7367 45.3056C39.4818 45.1504 38.6238 45.7722 37.6806 45.9828C36.7374 46.1933 35.7787 46.5569 34.8283 46.8523L34.748 46.6604C34.9179 46.5153 35.1056 46.3926 35.3066 46.2952C36.7083 45.8109 38.109 45.3296 39.5234 44.8908C39.8971 44.793 40.2862 44.7677 40.6695 44.8164C41.185 44.8619 41.3316 45.2478 41.006 45.6356C40.8114 45.859 40.5628 46.0287 40.2839 46.1286C38.6894 46.6714 37.083 47.1904 35.4651 47.6659C35.1595 47.7556 34.7717 47.6394 34.4442 47.5452C34.3406 47.5152 34.2992 47.2522 34.2366 47.091L34.336 46.9383Z" fill="#84B140"/>
</svg>
