<svg width="46" height="72" viewBox="0 0 46 72" fill="none" xmlns="http://www.w3.org/2000/svg">
<path d="M11.2383 27.4811C10.3871 26.7237 10.0609 26.2293 10.0596 25.3949C10.0584 24.5605 9.4691 23.6683 9.18126 22.7937C7.65441 18.1311 7.29751 13.4229 8.74411 8.67241C9.50072 6.17954 10.4199 4.51489 11.9012 3.44249C11.4427 4.50578 11.0193 5.58724 10.5143 6.62494C8.46069 10.8689 8.27932 15.2973 9.29442 19.798C9.73626 21.7514 10.4617 23.6557 11.1133 25.7222C17.2824 24.7223 21.3693 21.2953 24.2367 16.1042C24.3651 17.3803 23.8392 18.3459 23.1881 19.2652C20.7084 22.7873 17.0461 25.3017 12.8682 26.3503L11.9029 26.6452C11.9117 27.6191 12.2933 28.0217 13.1904 27.6821C14.9691 27.0122 16.7549 26.3486 18.5124 25.6242C20.7837 24.6852 23.0576 24.0885 25.5819 24.4409C29.1747 24.947 31.7551 26.8491 33.6736 29.7786C35.7982 33.0021 36.5427 36.6637 36.7841 40.4497C37.1842 46.7397 35.5931 52.5567 32.5578 58.014C31.9538 58.9964 31.2635 59.9229 30.4949 60.7827C28.9848 62.6017 26.8096 62.8252 24.6786 62.9317C23.8156 62.9742 22.9366 62.4224 22.056 62.3804C20.1285 62.2879 18.4165 62.7225 17.363 64.6267C16.8447 65.5634 15.8311 65.9742 14.7721 66.2044C11.1859 66.9821 7.88491 66.2115 4.85325 64.2876C-1.48645 60.2604 -6.09969 54.8041 -8.62012 47.674C-9.72401 44.604 -9.87525 41.2722 -9.05402 38.1148C-8.2328 34.9574 -6.47739 32.1215 -4.01758 29.9784C-1.07043 27.4391 2.33842 26.3084 6.26701 27.1384C7.39365 27.3741 8.54331 27.5228 9.67966 27.6546C10.2035 27.645 10.7252 27.5869 11.2383 27.4811V27.4811ZM12.3894 29.3026C11.6759 29.0042 10.9427 28.7555 10.1949 28.5583C8.8978 28.313 7.56405 28.2399 6.26387 27.9894C4.73526 27.6547 3.15201 27.6576 1.62463 27.9979C0.0972432 28.3381 -1.3375 29.0075 -2.57955 29.9593C-5.18858 31.9087 -7.10464 34.6425 -8.04695 37.7601C-8.98926 40.8776 -8.9083 44.215 -7.81589 47.2832C-5.78253 53.2687 -2.02728 58.0102 2.9063 61.852C5.72938 64.0446 8.80302 65.7089 12.5548 65.5295C14.3745 65.4427 16.1081 65.2621 17.1351 63.3909C17.4061 62.9092 17.7912 62.5016 18.2568 62.2038C18.7223 61.906 19.2539 61.7272 19.8048 61.6832C21.2903 61.5347 22.8279 61.2225 24.2646 61.4603C24.9695 61.6018 25.6978 61.5754 26.3906 61.3832C27.0834 61.191 27.7212 60.8385 28.2525 60.354C29.2748 59.5211 30.1991 58.5748 31.0079 57.5333C33.8592 53.6111 35.3269 49.1502 35.7526 44.3516C36.1412 39.978 35.7077 35.711 33.7476 31.6969C30.8421 25.7383 24.7932 23.8331 19.5403 26.1665C17.487 27.07 15.3468 27.7819 13.2682 28.6299C12.9468 28.81 12.6547 29.038 12.4018 29.3059L12.3894 29.3026Z" fill="#84B140"/>
<path d="M24.2619 6.54165C26.3359 14.6052 21.0479 22.7943 12.9214 23.747C13.5854 23.4168 14.2516 23.0783 14.9218 22.7586C17.3271 21.5977 19.5575 20.2087 21.2529 18.0749C23.5071 15.2371 24.2699 11.5125 23.7041 7.94693C23.5404 7.9139 23.3719 7.91303 23.2079 7.9444C19.0706 9.78314 15.1143 11.8605 12.6039 15.8861C12.1234 16.6398 11.7993 17.4823 11.6509 18.3637C11.5025 19.2451 11.5328 20.1474 11.74 21.0169C11.8281 21.4217 11.8266 21.8472 11.9006 22.6076C10.8263 21.8046 10.745 20.9712 10.6821 20.1516C10.5889 19.0276 10.7344 17.8966 11.1089 16.8327C11.4834 15.7688 12.0785 14.7961 12.8553 13.9784C13.9739 12.7433 15.2012 11.6112 16.5223 10.5957C18.8307 8.828 21.4262 7.60206 24.2619 6.54165Z" fill="#84B140"/>
</svg>
