<svg width="64" height="63" viewBox="0 0 64 63" fill="none" xmlns="http://www.w3.org/2000/svg">
<path d="M0.50773 33.2523C0.50773 25.8454 2.39892 20.1281 5.7055 14.7671C9.09204 9.25393 14.0499 5.91882 19.9794 3.76882C22.7621 2.77269 25.6321 2.04079 28.5517 1.58279C30.3509 1.29051 32.1502 0.990233 33.9574 0.782039C36.9561 0.409692 39.8588 0.974218 42.6776 1.92711C49.7826 4.32934 54.9684 9.1098 58.8627 15.3796C61.2521 19.1893 62.8171 23.4584 63.4567 27.9113C64.6882 36.7195 62.4372 44.5348 56.9635 51.5013C52.5654 57.1065 46.9678 60.7619 40.0268 62.2833C36.8129 62.9687 33.5116 63.1457 30.243 62.8078C25.6291 62.3332 21.1495 60.9739 17.0486 58.8041C11.1392 55.7733 6.4012 51.4973 3.50644 45.4196C1.5033 41.2598 0.423766 36.8556 0.50773 33.2523ZM50.0025 51.3091L49.3428 50.3042L49.0789 50.5684L50.0625 51.2691C49.9945 52.0258 50.4223 52.4422 51.2619 53.0107C51.0744 52.3033 50.6238 51.6945 50.0025 51.3091V51.3091ZM33.6975 22.5503C33.4936 23.0788 33.3337 23.6033 33.9854 24.1038C33.8734 23.5112 33.7854 23.0308 33.6935 22.5503C33.1497 21.3252 32.442 20.1481 32.7179 18.6907C33.8934 20.2682 34.0653 22.2741 35.0569 24.1878C35.6007 21.8977 36.0925 19.8358 36.5922 17.7258L33.3936 15.6239C33.2617 17.4416 35.3928 18.1742 34.797 20.1321C34.3132 19.6476 33.8334 19.3513 33.6255 18.9309C33.1144 17.9843 32.721 16.9786 32.454 15.9362C32.1901 14.687 31.4065 14.1585 30.4549 13.7621C31.1306 16.1644 31.7863 18.5306 32.454 20.8848C32.5816 21.3524 32.7684 21.8018 33.0098 22.222C33.1457 22.3902 33.4736 22.4422 33.6975 22.5503ZM17.8243 41.1276C19.2837 43.1295 20.7031 45.0913 22.1145 47.0451C22.9141 48.1822 23.7498 49.3193 24.5334 50.4803C25.0652 51.2811 25.6809 51.6414 26.6965 51.4573C27.605 51.3468 28.5207 51.3067 29.4353 51.3371C32.0702 51.2691 34.709 51.193 37.3439 51.141C37.6853 51.1682 38.0274 51.0967 38.3293 50.9348C38.6313 50.773 38.8805 50.5277 39.0472 50.2281C40.7729 47.578 42.1075 44.6922 43.0095 41.6601C40.3106 37.5443 37.6078 33.4204 34.805 29.1365C33.3057 30.4177 31.3945 29.7851 29.5833 29.8491C27.9839 29.9012 26.3846 29.709 24.7853 29.6249C24.5161 29.6 24.2458 29.6614 24.0137 29.8003C23.7816 29.9392 23.5995 30.1484 23.4939 30.3976C21.6067 34.025 19.6875 37.6244 17.8243 41.1276ZM43.5972 40.8193C44.5208 40.6312 45.2445 40.419 45.9962 40.3469C46.7479 40.2748 47.5036 40.3469 48.2553 40.3229C49.5467 40.3229 50.8341 40.3229 52.1216 40.2748C53.513 40.2388 53.7209 40.1267 54.0368 38.8095C54.9724 35.11 55.872 31.4026 56.7596 27.6911C56.853 27.3445 56.8115 26.9753 56.6436 26.6581C54.7485 24.1158 52.9092 21.5174 50.8381 19.1231C49.8625 17.9981 49.1588 16.9611 49.3108 15.4557C49.3108 15.3876 49.1988 15.3076 49.1069 15.1915C45.6763 15.9922 42.2378 16.845 38.7753 17.5937C38.3489 17.6488 37.9523 17.8423 37.6462 18.1445C37.34 18.4468 37.1412 18.8411 37.08 19.2673C36.5323 21.9498 36.0085 24.6363 35.5327 27.3308C35.4644 27.8003 35.55 28.2793 35.7766 28.696C36.9761 30.798 38.1756 32.904 39.475 34.9339C40.7745 36.9637 42.2218 38.8575 43.5972 40.8193ZM3.21458 29.1725C5.17773 32.4876 7.14487 35.7546 9.04806 39.0577C9.42789 39.7103 9.84774 40.0066 10.5714 39.9545C12.2384 39.8825 13.9055 40.095 15.5013 40.5831C16.0094 40.6835 16.5237 40.749 17.0406 40.7793C18.8359 37.4522 20.6191 34.1531 22.3783 30.838C22.4847 30.5527 22.4847 30.2385 22.3783 29.9532C21.8426 28.3838 21.2908 26.8183 20.7031 25.2649C19.8634 23.0708 18.9878 20.8928 18.0962 18.6267C15.0855 18.0421 11.9788 18.3464 8.83216 18.3144L3.21458 29.1725ZM24.9852 5.02199C25.525 6.43931 26.0848 7.94071 26.6645 9.42609C27.0643 10.443 27.5241 11.3759 28.7956 11.5641C29.1513 11.6908 29.4777 11.8883 29.7552 12.1446C31.8583 13.5499 33.9774 14.9472 36.0445 16.3886C36.374 16.6601 36.765 16.8467 37.1832 16.9318C37.6015 17.017 38.0342 16.9982 38.4434 16.877C40.2587 16.3886 42.1019 16.0122 43.9291 15.5678C45.6923 15.1394 47.4516 14.683 49.2988 14.2186C49.1788 12.8132 49.9225 11.472 49.0429 9.95058C49.4907 9.89453 49.9385 9.68633 50.2024 9.82647C51.6098 10.5872 53.0012 11.428 54.3446 12.2567C54.8324 12.557 55.2682 12.8653 55.9439 12.6571C54.3092 10.3299 52.2792 8.30807 49.9465 6.68354C46.1441 4.06109 42.2898 1.57478 37.3079 2.07524C35.7686 2.23139 34.1933 1.98316 32.634 1.95914C32.1532 1.93765 31.6731 2.01392 31.2225 2.18334C29.2194 3.06016 27.2403 3.98903 24.9892 5.02199H24.9852ZM53.1331 54.4721L52.9052 54.2318C52.7253 54.3279 52.5374 54.416 52.3695 54.5281C51.4459 55.1447 50.6022 55.8573 49.4547 56.1296C48.7349 56.2867 48.0622 56.6118 47.4916 57.0785C46.8838 57.591 46.1881 57.8512 45.6284 57.3908C43.8491 55.9214 42.0619 54.456 40.3106 52.9506C39.9654 52.6168 39.5559 52.3569 39.107 52.1868C38.658 52.0168 38.1792 51.9402 37.6998 51.9617C34.4772 52.1059 31.2465 52.25 28.0199 52.218C25.7889 52.1979 24.0976 52.9186 22.4223 54.448C20.823 55.8854 20.1913 57.1345 21.2508 59.0483C21.2788 59.0924 21.2508 59.1684 21.2988 59.2005C21.6587 59.5608 21.9625 60.0773 22.3983 60.2454C25.6255 61.4536 29.03 62.1192 32.474 62.2153C37.28 62.4074 42.0569 61.3843 46.364 59.2405C48.8603 58.0233 51.1456 56.4134 53.1331 54.4721V54.4721ZM23.9457 4.68167C21.9065 4.9259 19.6995 4.64564 17.6404 5.59452C16.9047 5.93084 16.185 6.29918 15.4693 6.67153C12.7659 8.01268 10.4031 9.95285 8.56028 12.3448C8.21859 12.7457 7.9944 13.2335 7.91256 13.7541C7.8286 15.3556 7.88057 16.9331 7.88057 18.5266C8.41634 17.5777 8.41234 17.5096 9.30395 17.4856C11.2391 17.4336 13.1783 17.4376 15.1135 17.4856C16.4009 17.5056 17.8043 17.9701 18.9398 17.5937C20.1393 17.1933 21.0909 16.0443 22.1385 15.1915C23.6418 13.9984 25.1452 12.7972 26.6485 11.5881L23.9457 4.68167ZM60.1861 19.8038L59.8063 19.7757C59.2305 21.8697 58.6068 23.9556 58.083 26.0576C57.1634 29.6489 56.3318 33.2523 55.3402 36.8556C54.7862 38.6311 54.746 40.5274 55.2243 42.3247C56.0439 45.3876 56.4237 48.5425 54.6285 51.8456C55.3042 51.6254 55.852 51.6174 56.0719 51.3492C58.2829 48.6146 60.1221 45.6639 61.2297 42.3207C59.2305 39.3179 58.2989 36.2791 60.494 33.0041C60.8938 32.4235 61.2657 31.839 61.6935 31.2744C61.9042 31.0394 62.1342 30.8224 62.3812 30.6258C62.3052 31.2704 62.0613 31.827 62.2452 32.1433C62.749 32.984 62.5371 33.7448 62.3612 34.5855C62.0693 36.0029 61.8694 37.4362 61.6295 38.8615C61.5975 39.0697 61.6295 39.41 61.5216 39.4661C60.418 40.0266 61.1217 40.471 61.6735 41.2357C63.8805 33.6767 63.2648 26.6461 60.1981 19.8038H60.1861ZM6.81703 14.8912C-1.37145 25.9895 0.127906 43.0334 8.36837 50.9448C10.0756 49.9478 10.0716 49.8998 9.75976 48.0221C9.49588 46.4206 9.35994 44.8191 9.09206 43.2176C8.87615 41.9044 8.85614 40.451 8.2524 39.3259C6.34122 35.7907 4.19416 32.3795 2.11905 28.8882C3.05065 28.0875 3.57842 27.2867 2.99467 26.1577C2.85074 25.8854 3.01865 25.413 3.1266 25.0567C3.63838 23.3591 4.11018 21.6455 4.72591 19.9919C5.08395 18.9771 5.60972 18.0297 6.28125 17.1893C6.57953 16.8969 6.78837 16.5254 6.88326 16.1184C6.97816 15.7113 6.95518 15.2856 6.81703 14.8912V14.8912ZM20.4792 59.5288C19.9874 57.2587 19.6795 56.7822 18.2201 55.9454C17.8483 55.7292 17.4765 55.513 17.1166 55.2768C14.8296 53.7874 12.5426 52.29 10.1716 50.7366L8.85215 51.7896C12.1787 55.1967 15.9971 57.623 20.4792 59.5288ZM31.7104 27.8473C31.6064 27.4469 31.5264 27.0785 31.3865 26.7102C30.0137 23.0962 28.6383 19.4848 27.2603 15.8761C26.9044 14.9472 26.3646 14.0384 27.1763 13.0735C27.2363 13.0014 27.1283 12.7852 27.0563 12.4449L25.557 13.5579C26.4686 15.9602 27.3322 18.2703 28.2078 20.5645C29.0475 22.7665 29.8911 24.9686 30.7667 27.1626C30.8987 27.4869 30.8947 28.1075 31.7104 27.8473ZM51.9217 52.298L53.8529 50.3362C53.3531 49.8838 52.9093 49.2392 52.6534 49.3073C51.7018 49.5755 51.3859 48.9069 50.9781 48.3864C49.4747 46.4966 48.0113 44.5748 46.524 42.6731C46.2761 42.3568 45.9722 42.0805 45.6843 41.7762C45.1086 42.4929 45.5924 42.8973 45.9202 43.2896C47.3996 45.0593 48.903 46.8049 50.3903 48.5666C50.7422 48.987 51.058 49.4354 51.4659 49.9639L50.3783 50.2521L51.9217 52.298ZM42.8816 47.1773C42.6137 47.5776 42.0819 47.7618 42.7256 48.2302C43.2275 48.6147 43.6648 49.0769 44.0211 49.5995C45.0046 50.9968 45.9242 52.4342 46.8878 53.8475C47.1477 54.2479 47.4596 54.5802 47.7954 55.0046L49.1229 54.0797C47.2557 51.5293 45.5524 48.9509 42.8816 47.1773V47.1773ZM20.955 54.2479C18.0242 50.16 13.5781 47.7698 10.3395 43.9743C9.9157 44.8631 10.4475 45.2635 10.8673 45.6398C13.882 48.3223 16.9087 50.9915 19.9474 53.6473C20.2644 53.8776 20.6016 54.0787 20.955 54.2479ZM22.7102 28.2236C22.9221 27.6471 23.0821 27.4229 23.0381 27.2947C22.2384 24.5602 21.4188 21.8256 20.5471 19.1071C20.4752 18.8869 19.9834 18.8028 19.6875 18.6547C19.5481 18.9495 19.4318 19.2547 19.3397 19.5675C19.3077 19.6917 19.4596 19.8558 19.5196 20.008C20.2526 21.8577 20.9843 23.7074 21.7146 25.5571C22.0225 26.3338 22.2984 27.1066 22.7182 28.2356L22.7102 28.2236ZM28.0679 12.3208C28.8316 15.9802 30.4349 19.2833 32.0342 22.5904C31.7867 21.6396 31.485 20.7039 31.1306 19.7877C30.9747 19.3433 30.6468 18.7748 30.7947 18.4425C31.1026 17.7579 30.7547 17.2934 30.5388 16.7769C30.087 15.6999 29.3074 14.671 29.1874 13.574C29.0995 12.6931 28.7396 12.525 28.0759 12.3328L28.0679 12.3208ZM25.1452 25.6452C25.3291 25.1968 25.7409 24.7003 25.6569 24.308C25.2811 22.5783 24.7653 20.8808 24.2895 19.1752C24.1096 18.5226 23.6738 18.5626 23.0901 18.7748C23.306 21.1931 24.1536 23.3711 25.1452 25.6452ZM58.5668 20.2362C59.4624 18.943 59.5504 17.8059 58.6628 16.6008C58.027 15.74 57.5193 14.7871 56.9155 13.9023C56.7213 13.7006 56.4958 13.5316 56.2478 13.4018L56.0079 13.5619C56.8395 15.736 57.6712 17.902 58.5668 20.2442V20.2362ZM20.1113 55.3289C19.1038 54.388 18.1122 53.4351 17.0886 52.4982C15.8612 51.3652 14.6337 50.2361 13.3902 49.1191C13.0544 48.8148 12.6745 48.4585 12.1227 49.047C12.4626 49.3713 12.7585 49.6636 13.0664 49.9438C15.0148 51.7215 16.9607 53.4991 18.9038 55.2768C19.2597 55.6131 19.5636 56.0736 20.1113 55.3369V55.3289ZM3.95425 24.6603L4.29011 24.8485L6.56114 21.0049C7.32881 19.6917 7.3408 19.3393 6.56114 17.4215C5.62554 19.9879 4.78989 22.3301 3.95425 24.6683V24.6603ZM14.9575 45.9561C13.6981 44.691 12.4586 43.3777 11.1312 42.1606C10.8353 41.8883 10.2436 41.9404 9.65981 41.8163C9.80375 42.2807 9.84773 42.7331 9.96768 42.7531C11.0072 42.9373 11.3151 43.9022 11.9428 44.5148C12.5706 45.1274 13.0983 45.6198 13.6941 46.1523C14.1179 46.5287 14.5577 46.6127 14.9575 45.9561ZM16.6968 43.8662L16.3609 44.1865L23.2979 52.27L23.6658 51.5734C22.4863 50.2281 21.3788 48.9189 20.2233 47.6617C19.0678 46.4045 18.0842 44.9232 16.7008 43.8662H16.6968ZM25.3171 15.2795L24.9892 15.3876C25.2411 16.0723 25.501 16.7569 25.7449 17.4496C26.8004 20.4323 27.836 23.4271 28.9435 26.4019C29.1474 26.9664 29.1914 27.7271 30.195 28.0915L25.3171 15.2795ZM49.3428 42.6891L53.2331 48.3143L53.537 48.2022C53.4716 47.7223 53.3495 47.2519 53.1731 46.8009C52.5054 45.5678 51.7498 44.3987 51.054 43.1695C50.7022 42.5369 50.1944 42.4288 49.3428 42.6891ZM15.3574 46.4646C15.3903 46.8721 15.5118 47.2675 15.7135 47.623C15.9152 47.9785 16.1921 48.2855 16.5249 48.5225C18.2761 50.0199 20.1993 51.3532 21.3748 53.4311C21.4347 53.5352 21.7746 53.4831 22.3943 53.5392C19.9994 50.9608 18.0322 48.5225 15.3574 46.4646ZM46.6919 49.4073L46.8598 49.2792C46.0082 47.7058 45.1526 46.1363 44.169 44.3306L43.1414 46.1603L46.6919 49.4073ZM20.3032 46.4085C18.0322 42.3368 17.1806 41.6041 15.0095 41.532C15.0619 41.8517 15.2152 42.1463 15.4469 42.3725C15.6785 42.5987 15.9764 42.7447 16.2969 42.7892C17.2805 42.9293 17.7523 43.5899 18.3161 44.2065C18.9558 44.9232 19.6275 45.6639 20.2873 46.3965L20.3032 46.4085ZM54.2886 42.2967C53.5929 43.4418 53.8608 47.1012 54.7844 49.011C55.1731 46.7611 54.9973 44.4497 54.2727 42.2847L54.2886 42.2967ZM28.1519 28.2516L28.6436 28.0474L25.6729 19.8478C26.1527 22.7705 26.7085 25.6452 28.1519 28.2516ZM53.2811 14.5148C53.6809 16.7089 53.365 19.0431 54.7165 21.0369C54.8186 20.5954 54.8295 20.1376 54.7485 19.6917C54.6605 19.007 54.4166 18.3064 54.4926 17.6377C54.6405 16.3525 53.9008 15.4797 53.2811 14.5148ZM21.9625 18.7908L21.6427 18.8389C21.6027 19.019 21.4907 19.2392 21.5387 19.3794C22.3384 21.9391 23.138 24.4908 23.9377 27.0345C23.9377 27.0345 24.1136 26.9985 24.2975 26.9584C23.5219 24.2145 22.7435 21.492 21.9625 18.7908ZM57.8751 23.3751C57.6369 21.6718 56.8293 20.0996 55.5841 18.9149C55.6321 19.7877 55.848 20.6125 55.9319 21.4493C56.0359 22.5063 56.5717 23.0908 57.8751 23.3751V23.3751ZM60.514 38.9896L61.8414 32.892C60.434 34.6976 59.2345 36.5354 60.514 38.9976V38.9896ZM41.926 49.7557C42.7936 49.9158 42.7256 51.153 43.9571 50.9568C43.4053 50.156 42.9255 49.4914 42.4657 48.8388L40.9144 48.6466C40.6225 49.8077 40.7345 50.0399 42.1379 51.0489C42.0579 50.5604 41.9939 50.1841 41.926 49.7637V49.7557ZM15.7572 45.4477C15.3893 44.0504 14.9056 42.7732 13.4822 42.2206C12.9904 42.0285 12.5586 41.8683 12.4826 41.1557C12.4306 40.6672 11.8909 40.7273 11.3151 41.1196L15.7572 45.4477ZM54.7005 13.9463C54.7005 15.8441 55.724 17.2454 56.8795 18.5786C56.3997 16.9091 56.0559 15.1875 54.6805 13.9463H54.7005ZM46.496 56.1416C46.7079 54.6122 45.0806 52.298 43.8052 52.0578C44.6808 53.387 45.4764 54.6002 46.496 56.1416ZM22.6942 15.8481L20.5191 17.5417C21.3668 18.2343 21.8266 17.6578 22.2624 17.1773C22.8821 17.906 22.8821 17.906 23.8217 17.9781C23.4379 17.2374 23.102 16.6208 22.6942 15.8481ZM50.0945 45.788L50.2984 45.5878C49.3868 44.2265 48.4791 42.8612 47.5595 41.508C47.2717 41.0876 46.9318 41.0556 46.508 41.4279L50.0945 45.788ZM52.0256 14.4908C51.5099 15.784 51.9297 17.962 52.9612 18.8389C52.6573 17.2854 52.7653 15.8641 52.0256 14.4908ZM27.1763 28.3878C26.7765 27.3828 26.4886 26.6902 26.1687 25.8934C25.461 26.5701 25.0932 27.2547 25.553 27.9634C25.7529 28.2516 26.4326 28.2116 27.1763 28.3878ZM11.503 49.7557L11.2271 50.072C12.0268 51.169 13.1943 51.8016 14.3058 52.5022L14.5177 52.234L11.503 49.7557ZM50.2864 13.7501L50.6462 13.7902C50.6499 13.3941 50.7091 13.0006 50.8221 12.6211C51.0634 12.2401 51.3522 11.8916 51.6818 11.5841L50.2864 11.0396V13.7501ZM56.0879 23.6433C55.808 24.7924 56.4877 25.3009 57.2314 26.0976C57.3673 25.3249 57.4513 24.8204 57.5473 24.2799L56.0879 23.6433ZM12.5066 48.2783L10.7913 46.7248L10.5114 46.885C10.5714 47.4255 10.6274 47.962 10.6994 48.6186L12.5066 48.2783ZM32.7659 23.8836L32.498 24.0157L33.5455 26.1897L33.9014 26.0095C33.5122 25.3129 33.1271 24.6096 32.7459 23.8996L32.7659 23.8836ZM50.3583 17.1052C51.4499 16.2084 50.8781 15.5798 50.3583 14.9472V17.1052ZM52.8413 41.7682C52.4414 40.8954 52.0856 40.8474 50.7662 41.548C51.3859 41.6761 51.8897 41.7963 52.4015 41.8763C52.5499 41.8727 52.6963 41.8414 52.8333 41.7842L52.8413 41.7682ZM51.7417 42.569C52.0616 43.1215 52.2335 43.4498 52.4454 43.7701C52.5014 43.8542 52.6893 43.8422 52.9092 43.8942C52.8773 43.3937 52.8453 42.9854 52.8133 42.5009L51.7417 42.569ZM23.246 15.3036L24.5534 16.6768C24.2895 15.9281 24.1256 15.4757 23.9257 14.8832L23.246 15.3036ZM41.9819 53.1268C41.4862 52.0818 41.4861 52.0818 40.6865 52.2019L41.9819 53.1268ZM32.1022 25.2448L31.8663 25.3289L32.2661 26.454L32.518 26.3699C32.3701 26.0015 32.2381 25.6452 32.1022 25.2448ZM47.9994 48.7587L48.1633 48.6266L47.7634 48.1502L47.6435 48.2503L47.9994 48.7587ZM48.3632 41.2918C48.3632 41.3919 48.3912 41.496 48.4072 41.5961C48.707 41.5961 49.0109 41.6641 49.3108 41.6561C49.506 41.6289 49.6977 41.5806 49.8825 41.512C49.8825 41.4399 49.8825 41.3679 49.8825 41.2918H48.3632Z" fill="#84B140"/>
</svg>
