<svg width="84" height="85" viewBox="0 0 84 85" fill="none" xmlns="http://www.w3.org/2000/svg">
<g filter="url(#filter0_d_102_69)">
<circle cx="41.9792" cy="39.6055" r="28.2333" fill="url(#paint0_radial_102_69)"/>
<circle cx="41.9792" cy="39.6055" r="27.2598" stroke="white" stroke-width="1.94713"/>
</g>
<g filter="url(#filter1_d_102_69)">
<path d="M57.1348 43.6912V37.6033C57.1348 37.4565 57.0764 37.3157 56.9727 37.2119C56.8689 37.1081 56.7281 37.0498 56.5813 37.0498H51.0468C50.9 37.0498 50.7592 37.1081 50.6554 37.2119C50.5516 37.3157 50.4933 37.4565 50.4933 37.6033V43.6912C50.4945 43.8091 50.5333 43.9235 50.604 44.0178C50.8913 44.3968 51.0468 44.8594 51.0468 45.335C51.0468 45.8106 50.8913 46.2732 50.604 46.6522C50.5262 46.7555 50.4871 46.8828 50.4933 47.012V53.0999C50.4933 53.2467 50.5516 53.3875 50.6554 53.4913C50.7592 53.5951 50.9 53.6534 51.0468 53.6534H56.5813C56.7281 53.6534 56.8689 53.5951 56.9727 53.4913C57.0764 53.3875 57.1348 53.2467 57.1348 53.0999V47.012C57.1336 46.8941 57.0948 46.7797 57.0241 46.6854C56.7368 46.3064 56.5813 45.8438 56.5813 45.3682C56.5813 44.8926 56.7368 44.43 57.0241 44.051C57.1019 43.9477 57.141 43.8204 57.1348 43.6912Z" fill="white"/>
<path d="M48.8333 47.0121H42.7454C42.6275 47.0133 42.5131 47.0521 42.4188 47.1228C42.0376 47.405 41.5759 47.5573 41.1016 47.5573C40.6273 47.5573 40.1656 47.405 39.7844 47.1228C39.6811 47.045 39.5538 47.0059 39.4246 47.0121H33.3367C33.1899 47.0121 33.0491 47.0704 32.9453 47.1742C32.8415 47.278 32.7832 47.4188 32.7832 47.5656V53.1001C32.7832 53.2469 32.8415 53.3877 32.9453 53.4915C33.0491 53.5953 33.1899 53.6536 33.3367 53.6536H39.4246C39.5425 53.6524 39.6569 53.6136 39.7512 53.5429C40.1324 53.2607 40.5941 53.1084 41.0684 53.1084C41.5427 53.1084 42.0044 53.2607 42.3856 53.5429C42.4889 53.6207 42.6162 53.6598 42.7454 53.6536H48.8333C48.9801 53.6536 49.1209 53.5953 49.2247 53.4915C49.3285 53.3877 49.3868 53.2469 49.3868 53.1001V47.5656C49.3868 47.4188 49.3285 47.278 49.2247 47.1742C49.1209 47.0704 48.9801 47.0121 48.8333 47.0121Z" fill="white"/>
<path d="M51.7447 26.5343C52.8017 28.2721 53.1338 30.4804 53.2224 32.6223H54.3293C54.2297 30.3254 53.8754 27.9235 52.6689 25.9808C52.1791 25.0985 51.4157 24.3992 50.4939 23.9884C49.5518 23.6626 48.5506 23.5434 47.5584 23.6389C46.5662 23.7344 45.6061 24.0424 44.7435 24.5419C43.8844 24.9716 43.1288 25.5826 42.5288 26.3327C41.9287 27.0827 41.4985 27.954 41.2678 28.8865C41.1553 29.5114 41.0942 30.1444 41.0852 30.7793C41.0799 31.4097 41.0132 32.038 40.8859 32.6555C39.9395 36.4079 35.6945 36.4411 31.9532 36.4964C31.2558 36.4964 30.6028 36.4964 30.005 36.5407C28.1233 36.6348 26.6843 37.1661 25.6826 38.1125C24.8659 38.9449 24.3183 40.0035 24.1108 41.151C23.8657 42.5947 23.7932 44.0624 23.8949 45.5233C23.9281 46.0048 23.9281 46.5084 23.9281 47.012C23.9113 47.5018 24.0016 47.9893 24.1928 48.4405C24.384 48.8918 24.6714 49.2958 25.035 49.6243C25.9838 50.38 27.1446 50.821 28.3557 50.8862V49.7793C27.4156 49.7285 26.5127 49.3947 25.7656 48.8218C25.5165 48.5938 25.3217 48.3129 25.1952 47.9997C25.0688 47.6866 25.0141 47.3491 25.035 47.012C25.035 46.4973 25.035 45.9826 25.0018 45.4624C24.9079 44.0888 24.9729 42.7089 25.1955 41.3502C25.361 40.4224 25.796 39.5639 26.4463 38.8818C27.2488 38.1236 28.4498 37.6974 30.0604 37.6033C30.6138 37.5757 31.278 37.5701 31.9587 37.5646C35.6945 37.5369 40.814 37.4982 41.9209 32.9101C42.0808 32.2254 42.1716 31.5264 42.1921 30.8235C42.1973 30.2521 42.2491 29.682 42.347 29.1189C42.5495 28.3464 42.9144 27.626 43.4174 27.0056C43.9203 26.3853 44.5498 25.8793 45.2637 25.5215C45.9858 25.0985 46.79 24.8347 47.6223 24.7478C48.4547 24.661 49.296 24.753 50.0898 25.0178C50.7897 25.3329 51.3698 25.8645 51.7447 26.5343V26.5343Z" fill="white"/>
<path d="M56.0285 35.9429V34.2826C56.0285 34.1358 55.9701 33.995 55.8664 33.8912C55.7626 33.7874 55.6218 33.7291 55.475 33.7291H52.1543C52.0075 33.7291 51.8667 33.7874 51.7629 33.8912C51.6591 33.995 51.6008 34.1358 51.6008 34.2826V35.9429H56.0285Z" fill="white"/>
<path d="M31.6757 48.1188H30.0154C29.8686 48.1188 29.7278 48.1771 29.624 48.2809C29.5202 48.3847 29.4619 48.5254 29.4619 48.6722V51.9929C29.4619 52.1397 29.5202 52.2805 29.624 52.3843C29.7278 52.4881 29.8686 52.5464 30.0154 52.5464H31.6757V48.1188Z" fill="white"/>
</g>
<defs>
<filter id="filter0_d_102_69" x="0.204476" y="0.839952" width="83.5493" height="83.5494" filterUnits="userSpaceOnUse" color-interpolation-filters="sRGB">
<feFlood flood-opacity="0" result="BackgroundImageFix"/>
<feColorMatrix in="SourceAlpha" type="matrix" values="0 0 0 0 0 0 0 0 0 0 0 0 0 0 0 0 0 0 127 0" result="hardAlpha"/>
<feOffset dy="3.00919"/>
<feGaussianBlur stdDeviation="6.77069"/>
<feComposite in2="hardAlpha" operator="out"/>
<feColorMatrix type="matrix" values="0 0 0 0 0 0 0 0 0 0 0 0 0 0 0 0 0 0 0.1 0"/>
<feBlend mode="normal" in2="BackgroundImageFix" result="effect1_dropShadow_102_69"/>
<feBlend mode="normal" in="SourceGraphic" in2="effect1_dropShadow_102_69" result="shape"/>
</filter>
<filter id="filter1_d_102_69" x="15.0883" y="18.7392" width="50.8093" height="47.5714" filterUnits="userSpaceOnUse" color-interpolation-filters="sRGB">
<feFlood flood-opacity="0" result="BackgroundImageFix"/>
<feColorMatrix in="SourceAlpha" type="matrix" values="0 0 0 0 0 0 0 0 0 0 0 0 0 0 0 0 0 0 127 0" result="hardAlpha"/>
<feOffset dy="3.89425"/>
<feGaussianBlur stdDeviation="4.38103"/>
<feComposite in2="hardAlpha" operator="out"/>
<feColorMatrix type="matrix" values="0 0 0 0 1 0 0 0 0 1 0 0 0 0 1 0 0 0 0.25 0"/>
<feBlend mode="normal" in2="BackgroundImageFix" result="effect1_dropShadow_102_69"/>
<feBlend mode="normal" in="SourceGraphic" in2="effect1_dropShadow_102_69" result="shape"/>
</filter>
<radialGradient id="paint0_radial_102_69" cx="0" cy="0" r="1" gradientUnits="userSpaceOnUse" gradientTransform="translate(63.7327 33.5885) rotate(142.943) scale(56.8372)">
<stop stop-color="#FFA041"/>
<stop offset="1" stop-color="#F68B1F"/>
</radialGradient>
</defs>
</svg>
