<svg width="69" height="110" viewBox="0 0 69 110" fill="none" xmlns="http://www.w3.org/2000/svg">
<g opacity="0.2">
<path d="M19.1324 61.0812C19.9207 59.8568 20.3803 59.0282 20.9539 58.3002C21.4638 57.6562 22.128 57.1261 22.6916 56.5156C24.1441 54.9222 24.0736 53.8722 22.3393 52.5472C21.3766 51.8192 20.2595 51.2724 19.3001 50.5613C18.623 50.0989 18.0382 49.5141 17.5758 48.837C16.8077 47.5925 17.2404 46.4888 18.6158 45.9252C19.2722 45.6786 19.9447 45.4769 20.6285 45.3214C21.4235 45.1034 22.2588 44.9793 23.0304 44.6841C24.9257 43.9561 25.2679 43.1577 24.493 41.2892C24.1397 40.4692 23.7201 39.6794 23.2384 38.9276C22.5842 37.8575 21.967 36.7371 22.6949 35.5462C23.4765 34.2547 24.8419 34.3386 26.1367 34.5264C27.2102 34.6807 28.2769 34.9424 29.3504 34.9961C31.0813 35.0766 32.0877 34.0232 32.0005 32.2789C31.9602 31.4536 31.7489 30.6385 31.6717 29.8166C31.5453 28.9978 31.5071 28.1679 31.5577 27.3409C31.7355 25.7811 32.9632 25.1034 34.3051 25.875C35.2859 26.4687 36.1934 27.1758 37.0089 27.9817C39.4879 30.3399 40.4238 30.2426 42.3628 27.3711C42.9422 26.5312 43.5896 25.7402 44.2983 25.0062C45.61 23.6341 47.1162 23.7985 48.0957 25.402C48.447 26.0806 48.7345 26.7903 48.9545 27.5221C49.1557 28.0588 49.3 28.619 49.4912 29.1591C50.0749 30.8028 50.729 31.0276 52.1682 29.9776C52.99 29.3772 53.7113 28.6425 54.4929 27.9817C54.8749 27.6439 55.282 27.3355 55.7106 27.0592C57.0155 26.2775 58.3104 26.6063 58.7968 28.0387C59.0811 29.0048 59.1521 30.0213 59.0048 31.0175C58.6324 34.2346 59.035 34.6975 62.3493 34.5633C63.4965 34.5163 64.6471 34.5667 65.781 34.4862C66.8175 34.4291 67.7468 34.6338 68.2667 35.5697C68.5279 36.0507 68.6484 36.5956 68.6146 37.1419C68.5808 37.6883 68.394 38.2141 68.0755 38.6592C67.6327 39.357 67.0255 39.944 66.5358 40.615C66.1064 41.2054 65.7407 41.8327 65.2174 42.6512C66.8981 43.4194 68.3741 44.0031 69.7595 44.7512C70.7084 45.2484 71.5751 45.8888 72.3291 46.6498C72.5655 46.8699 72.7522 47.1379 72.8768 47.4358C73.0015 47.7337 73.0612 48.0548 73.052 48.3776C73.0428 48.7005 72.9649 49.0176 72.8234 49.308C72.682 49.5983 72.4803 49.8552 72.2318 50.0614C71.3359 50.874 70.3743 51.6112 69.357 52.2654C67.881 53.265 67.6696 54.1741 68.7766 55.5898C69.3301 56.2909 70.0178 56.8779 70.6149 57.5421C72.1714 59.2664 71.7219 61.3328 69.5281 62.0439C68.26 62.4465 66.9048 62.574 65.6032 62.8692C63.2852 63.3958 62.9934 63.8823 63.5133 66.2204C63.7917 67.4649 64.1071 68.6592 63.6039 69.9674C63.4565 70.495 63.1311 70.9554 62.6829 71.2703C62.2347 71.5852 61.6913 71.7353 61.145 71.695C60.0003 71.6325 58.8602 71.5048 57.73 71.3126C55.7273 71.0476 55.3919 71.2556 54.882 73.161C54.5499 74.4055 54.191 75.6165 53.1343 76.4921C51.9937 77.438 51.0444 77.6091 49.8233 76.8175C48.875 76.1767 47.9778 75.4634 47.1396 74.684C45.2208 72.953 44.2145 72.9865 42.5137 74.9288C42.0472 75.5323 41.5347 76.0987 40.9807 76.6229C39.7361 77.6393 38.6325 77.4884 37.7771 76.103C37.3378 75.3318 37.0263 74.4946 36.8545 73.6239C36.2608 71.165 35.563 70.6618 33.0807 71.1516C32.4601 71.2757 31.8663 71.5273 31.2524 71.685C30.4614 71.9309 29.6513 72.1104 28.8304 72.2217C27.4416 72.3358 26.8278 71.6481 26.9921 70.2358C27.0974 69.5422 27.2441 68.8555 27.4316 68.1794C27.5792 67.5555 27.7704 66.9483 27.928 66.3411C28.5486 63.6072 27.824 62.574 25.0163 62.1681C24.2112 62.0339 23.3558 62.0507 22.544 61.8963C21.5409 61.7521 20.5882 61.4569 19.1324 61.0812ZM57.9246 28.2467C56.613 27.8877 55.8347 28.4379 55.0934 29.0652C54.3637 29.78 53.5942 30.4531 52.7887 31.0813C50.7525 32.4466 49.1792 31.8126 48.4848 29.461C48.2161 28.347 47.8456 27.26 47.3778 26.2138C46.6231 24.7478 45.5227 24.7143 44.5801 26.0327C43.936 26.9048 43.3188 27.7972 42.6881 28.6761C40.9672 31.0679 39.1256 31.2456 36.9116 29.2396C36.3927 28.6754 35.8356 28.1475 35.2444 27.6596C34.5902 27.2269 33.6543 26.566 33.0974 26.7606C32.0709 27.1162 32.4735 28.2769 32.5406 29.1289C32.6311 30.2728 32.9398 31.4134 32.9465 32.5405C32.98 34.8283 31.4302 36.2037 29.1323 36.0058C28.2434 35.9286 27.3678 35.724 26.4822 35.61C25.8585 35.4955 25.2235 35.4549 24.5902 35.4892C23.5604 35.5999 23.1746 36.2809 23.5369 37.2671C23.7718 37.791 24.0373 38.3007 24.3319 38.7934C24.8379 39.6772 25.284 40.5939 25.6671 41.5375C26.2407 43.1846 25.7677 44.4157 24.1877 45.1973C23.1309 45.6364 22.0434 45.9974 20.9338 46.2775C20.0515 46.5626 19.1693 46.8612 18.3809 47.1195C18.2643 47.6295 18.3247 48.1641 18.5521 48.6353C18.7794 49.1065 19.1604 49.4864 19.6322 49.7125C20.6721 50.3298 21.759 50.8799 22.7553 51.5542C25.0263 53.094 25.3048 54.9423 23.5906 57.0457C22.9432 57.834 22.1582 58.5116 21.4839 59.2798C21.1987 59.6796 20.9495 60.104 20.7392 60.5478C21.4873 60.7122 22.024 60.8732 22.5708 60.9504C23.6476 61.1013 24.7546 61.1214 25.8012 61.3563C28.3708 61.9131 29.347 63.3388 28.9646 65.9218C28.8338 66.8041 28.5151 67.6528 28.3608 68.5384C28.2065 69.424 28.1461 70.209 27.9951 71.4401C28.8975 71.0006 29.3906 70.749 29.8838 70.5176C31.0583 69.8892 32.2756 69.3444 33.5268 68.8873C35.5865 68.2633 37.0122 69.2261 37.5221 71.3193C37.6697 71.9366 37.72 72.584 37.8945 73.1945C38.2635 74.4827 39.0015 74.8316 40.2091 74.2344C40.8847 73.8791 41.5221 73.4553 42.1111 72.9698C44.3755 71.2086 45.7643 71.2556 47.8273 73.1979C48.0085 73.379 48.1896 73.5602 48.3708 73.7413C50.6183 75.8681 51.2322 75.7775 52.7585 73.0905C54.2144 70.5209 55.5294 69.897 58.4244 70.3767C59.2347 70.5484 60.0566 70.6594 60.8833 70.7088C62.0608 70.7256 62.668 70.1251 62.6948 68.951C62.7013 68.2487 62.611 67.5488 62.4264 66.8712C61.4838 63.3724 63.4261 61.6582 66.4955 61.5475C67.2615 61.5293 68.0221 61.4155 68.7598 61.2087C69.9742 60.8531 70.2325 60.0782 69.5146 59.045C69.0047 58.3137 68.4244 57.626 67.8474 56.9417C66.2406 55.0396 66.2037 53.889 67.8474 52.0909C68.7531 51.1047 69.7964 50.2426 70.729 49.2832C72.0977 47.9145 71.9165 47.2704 70.0816 46.576C69.6656 46.4217 69.2261 46.3446 68.7968 46.2238C68.0017 45.9991 67.21 45.7508 66.4083 45.5462C64.0333 44.9357 63.0772 40.7055 65.365 39.3369C65.6322 39.1632 65.8718 38.9506 66.0762 38.7062C66.6532 38.0688 67.6763 37.5422 67.1262 36.4888C66.576 35.4355 65.5495 35.5831 64.5733 35.7207C63.3791 35.8683 62.1547 36.1266 60.9672 36.2138C59.2027 36.3211 58.0521 35.3114 57.834 33.5637C57.8041 32.8015 57.8276 32.0381 57.9045 31.2792C57.9213 30.2091 57.9213 29.2161 57.9246 28.2467ZM40.7593 75.3683L38.3306 75.5562C39.3235 76.4552 39.8535 76.3143 40.7593 75.3683Z" fill="#84B140"/>
<path d="M95.8238 38.8873C92.4223 41.524 89.3092 44.4022 86.7195 48.1929C89.3595 51.3361 92.8449 53.6877 95.8238 56.8678C94.6094 56.9953 93.4789 57.2737 92.3686 57.2234C87.3974 57.0556 82.4205 57.2349 77.4743 57.7601C76.0847 57.8182 74.695 57.6459 73.3616 57.2502C71.8923 56.8812 71.53 55.9755 72.3217 54.6538C72.9408 53.6975 73.6805 52.8249 74.5223 52.0573C75.2368 51.3428 76.1459 50.8296 76.9342 50.1889C78.5344 48.8973 78.7256 47.5253 77.1791 46.1734C75.6327 44.8216 73.7742 43.7212 72.0634 42.5002C71.525 42.1385 71.053 41.6869 70.6679 41.1651C74.8309 40.3097 79.004 40.1755 83.1368 39.7193C87.2697 39.263 91.4595 38.8437 95.6225 38.411C95.6661 38.5619 95.7366 38.7196 95.8238 38.8873ZM85.4213 48.3841C87.3602 45.1436 90.017 42.7685 92.8248 39.9138C91.483 39.9138 90.6309 39.8132 89.7822 39.897C84.3188 40.4405 78.8575 41.0175 73.3985 41.628C73.271 41.6414 73.1536 41.8058 72.9356 41.9702C73.3482 42.2285 73.6803 42.4264 73.9856 42.6377C75.2834 43.4426 76.5314 44.3254 77.7225 45.2811C79.7252 47.0557 79.6783 49.0819 77.6923 50.8531C76.8839 51.5743 75.958 52.158 75.1093 52.839C74.0795 53.6675 73.0396 54.5062 73.0094 56.2807C74.1399 56.3981 75.1999 56.6665 76.2398 56.5994C80.376 56.3277 84.5055 55.9554 88.6517 55.5931C89.8862 55.4857 91.1039 55.3616 92.7074 55.2006C91.1811 53.8554 89.9634 52.839 88.8128 51.7554C87.6621 50.6719 86.5451 49.5079 85.4079 48.3707L85.4213 48.3841Z" fill="#84B140"/>
<path d="M51.8727 92.9897C50.4101 94.4523 49.0783 95.7304 47.8036 97.0588C46.5289 98.3872 44.9824 99.3097 44.2343 101.299C43.3689 100.078 43.4326 98.8602 43.4024 97.7095C43.3689 96.4415 43.5936 95.1567 43.5366 93.8921C43.3991 90.7757 43.1307 87.6626 42.9797 84.5462C42.8791 82.5133 42.8087 80.4704 42.8959 78.4241C42.9529 76.8307 43.4796 76.2235 44.8449 75.6767C45.9687 77.7599 47.6828 79.3198 49.5849 80.7119C51.6916 82.2618 52.8757 82.1175 54.3484 79.9739C55.1669 78.7797 55.9116 77.5117 56.6966 76.2839C56.9951 75.8243 57.3474 75.3983 57.6526 74.9857C58.659 75.3212 58.6858 76.086 58.7563 76.7603C59.1186 79.6653 59.4909 82.5737 59.7593 85.4855C60.1317 89.4808 60.3967 93.5029 60.7355 97.4848C60.8551 98.3892 60.8697 99.3043 60.7791 100.212C57.0924 98.6321 54.7811 95.6364 51.8727 92.9897ZM59.5178 98.4006C59.9807 95.7572 58.3369 78.7495 57.4748 77.2165C56.5792 78.4745 55.7707 79.766 54.8146 80.9367C52.9193 83.2547 51.2521 83.3788 48.9106 81.4332C47.7835 80.5006 46.7268 79.4775 45.6231 78.5147C45.2961 78.2632 44.9545 78.0314 44.6 77.8203C44.4927 78.1021 44.4088 78.2195 44.4121 78.3369C44.6022 84.0732 44.8024 89.8106 45.0126 95.5492C45.1306 96.4 45.3157 97.2402 45.5661 98.0618L51.97 91.6579C54.6738 93.8853 56.5523 96.73 59.5178 98.4006Z" fill="#84B140"/>
<path d="M34.0626 42.4799C34.5725 41.8157 34.9952 41.1851 35.5051 40.6349C36.0361 40.1209 36.5925 39.6339 37.1723 39.1757C39.8694 40.8932 42.1774 43.3823 44.7771 45.5058C47.2864 47.5677 49.8079 49.6129 52.3417 51.6413C52.6477 51.832 52.9784 51.9798 53.3246 52.0807C54.237 51.289 55.0354 50.4772 55.9411 49.8197C56.2969 49.5852 56.6961 49.4244 57.1151 49.347C57.5342 49.2696 57.9645 49.2771 58.3806 49.3691C58.7966 49.461 59.19 49.6356 59.5374 49.8824C59.8847 50.1293 60.179 50.4433 60.4027 50.806C60.5205 51.1498 60.5121 51.5244 60.3792 51.8627C60.2534 52.1618 60.0606 52.4281 59.8157 52.6409L49.1515 63.3051C48.1015 62.7516 47.0213 62.1813 45.864 61.5741C46.2464 59.0649 48.6315 58.1357 49.9733 56.0894C46.0653 51.8392 41.1005 48.6322 36.9845 44.3887C37.0717 44.9724 37.1757 45.5796 37.2797 46.1733C37.5744 47.9565 37.1838 49.7853 36.1861 51.2924C36.0318 51.5473 35.6326 51.6446 34.9415 52.0606C35.5923 50.068 36.5115 48.6121 36.337 46.8275C36.1626 45.0428 35.2971 43.7278 34.0626 42.4799ZM37.179 41.3763C37.3333 41.5641 37.4642 41.7621 37.6487 41.9466C39.6111 43.956 41.5601 45.9855 43.5561 47.968C45.6795 50.0915 47.8566 52.1679 50.0237 54.2478C50.4866 54.7107 50.9932 55.2172 52.1102 54.8449C46.9643 50.3162 42.6705 45.2575 37.1656 41.3629L37.179 41.3763ZM48.7489 62.0639C51.1911 60.3598 54.5758 56.7805 54.8576 55.6533C52.5597 56.71 52.5094 56.7738 50.651 59.8063C50.5067 60.0445 50.1344 60.1418 49.8694 60.3061C49.7754 60.2122 49.6614 60.1384 49.554 60.0579L50.6678 57.5151L50.4497 57.3776L47.2562 60.5711L48.7489 62.0639ZM58.504 51.6916L55.6325 53.181C56.1693 53.2548 56.649 52.9093 57.0347 52.9932C58.4504 53.3018 58.8428 52.2585 59.4634 51.4635C58.1887 50.0546 58.1317 50.0445 56.7429 50.7557C57.2863 51.0374 57.7459 51.2689 58.5074 51.6882L58.504 51.6916ZM50.755 51.9465C51.2582 52.6242 51.6473 53.5098 52.8683 53.8586C52.5362 52.5403 51.5567 52.3591 50.7583 51.9432L50.755 51.9465Z" fill="#84B140"/>
</g>
</svg>
