<svg width="58" height="75" viewBox="0 0 58 75" fill="none" xmlns="http://www.w3.org/2000/svg">
<g opacity="0.2">
<path d="M5.9894 43.419C1.4332 43.2823 -2.81924 42.9128 -6.90969 44.8011C-7.51212 43.7177 -7.06664 42.9229 -6.67683 42.1636C-4.14472 37.4685 -0.553296 33.4281 3.81253 30.363C5.90207 28.9274 8.32121 28.0443 10.8443 27.7964C11.7859 27.69 12.7275 27.5483 13.6742 27.4217C17.8203 19.2763 24.0775 13.2469 32.0205 8.99445C37.204 6.11977 42.8631 4.20254 48.7265 3.33464C50.9996 3.0309 53.3586 2.79803 55.0748 0.904679C55.581 0.352873 56.3961 0.165549 56.8973 0.732542C57.277 1.16285 57.5908 2.12978 57.363 2.5449C55.4292 6.08861 55.9861 9.98162 55.5659 13.7379C54.9952 18.2037 53.6828 22.5428 51.683 26.5763C48.7311 32.7422 44.554 38.2422 39.4066 42.7407C38.3333 43.6873 37.2651 44.6391 36.1615 45.5503C35.8272 45.7765 35.5753 46.105 35.4439 46.4867C35.3124 46.8683 35.3084 47.2823 35.4326 47.6664C36.278 51.3873 35.3921 54.8348 33.357 57.9786C32.2517 59.6983 31.0305 61.3406 29.7018 62.8942C27.7933 65.1116 25.738 67.2074 23.7282 69.3387C23.3186 69.766 22.8188 70.0963 22.2652 70.3056C23.2068 65.4001 22.1082 60.7984 21.1109 56.0194C20.6524 56.225 20.2076 56.4601 19.7795 56.7231C17.7241 58.2064 15.7599 57.8217 13.7046 56.6371C10.7633 54.931 8.44466 52.5871 6.283 50.0154C4.76427 48.2182 3.97962 46.5831 5.61478 44.5075C5.78801 44.1631 5.91401 43.797 5.9894 43.419V43.419ZM56.1075 1.4413C54.2749 3.30427 52.1184 3.9725 49.7846 4.21044C45.6232 4.65593 41.6847 5.97217 37.817 7.47571C30.2502 10.3255 23.6164 15.2076 18.6455 21.5847C17.309 23.3009 16.0485 25.0829 14.8487 26.8952C13.9779 28.2115 12.768 28.7076 11.305 28.824C8.77499 29.0077 6.34419 29.8833 4.27829 31.3552C0.0967171 34.3117 -3.11792 38.149 -5.77064 42.4926C-5.86176 42.6394 -5.80607 42.8723 -5.82632 43.1558C-1.37137 42.2547 3.038 41.8041 7.70051 42.8571C7.07276 44.0822 6.55136 45.1757 5.95399 46.2236C5.54899 46.9374 5.71096 47.4437 6.17671 48.0663C8.48518 51.1342 11.062 53.8831 14.4032 55.898C16.6914 57.2749 16.6104 57.3661 19.015 56.0144C19.8554 55.5436 20.5338 54.602 21.8095 54.9665C23.1183 59.1203 23.7625 63.4549 23.7181 67.8099C26.0012 65.3495 28.011 63.3498 29.8335 61.1882C32.9773 57.4572 35.3718 53.392 34.6327 48.2182C34.3643 46.3451 34.8807 44.8871 36.5463 43.905C36.66 43.8287 36.7652 43.7404 36.8601 43.6418C41.6037 39.5918 45.8358 35.0913 48.929 29.629C52.0221 24.1666 54.3357 18.3498 54.6951 11.9509C54.8824 8.62996 54.7812 5.26849 56.3556 2.18546C56.391 2.08927 56.2746 1.92729 56.1075 1.4413Z" fill="#84B140"/>
<path d="M12.1005 60.6517C13.0269 60.7023 13.5129 61.2389 13.4015 62.1147C13.3427 63.1924 13.112 64.2537 12.7181 65.2585C11.8632 67.0614 10.6434 68.6672 9.13585 69.9743C7.62832 71.2814 5.86588 72.2614 3.96007 72.8522C4.81056 70.893 6.74946 69.6882 6.34446 67.2835C1.7427 70.5893 -2.85904 73.6622 -8.76184 74.6949C-7.83035 69.2933 -6.61535 64.3271 -3.74495 59.4114L-8.49352 60.5656C-6.89379 55.8323 -2.31231 51.4533 2.04139 52.4657C3.22565 52.7383 4.37054 53.1601 5.44846 53.7212C7.843 54.9666 9.70597 56.8751 11.3968 58.9356C11.7334 59.4876 11.9955 60.0816 12.1764 60.7023C10.8349 59.4671 9.48825 58.2369 8.12645 56.9916C6.52886 55.5118 4.65794 54.358 2.61851 53.5947C-0.45945 52.4151 -5.23332 55.5285 -6.22555 59.0064L-0.793566 56.9156C-2.6 59.2694 -4.05774 61.8712 -5.12191 64.6409C-6.08884 67.3544 -7.21781 70.0678 -7.19756 73.247C-4.19554 72.6041 -1.73009 71.298 0.629009 69.84C2.98811 68.3821 5.18517 66.7317 7.55946 65.0915C8.32895 66.7773 7.29621 68.1694 7.36708 69.6173C10.7336 68.0429 12.7687 64.1397 12.1005 60.6517Z" fill="#84B140"/>
<path d="M36.7892 19.4638C36.7628 18.702 36.9164 17.9447 37.2374 17.2533C37.5585 16.562 38.0379 15.9561 38.637 15.4847C38.946 15.2208 39.3014 15.0165 39.6849 14.8823C41.9073 14.1229 43.3703 15.834 44.8992 16.806C46.1192 17.5856 45.9117 19.2765 45.3194 20.5826C44.5144 22.3848 43.1628 23.5796 41.067 23.5644C38.4294 23.5441 36.536 21.7064 36.7892 19.4638ZM37.8371 19.3625C37.8226 19.7885 37.895 20.213 38.0496 20.6102C38.2043 21.0074 38.4382 21.369 38.737 21.673C39.0357 21.977 39.3932 22.217 39.7877 22.3786C40.1821 22.5401 40.6053 22.6197 41.0315 22.6126C42.7679 22.6481 44.5094 20.861 44.5449 19.0031C44.5752 17.2819 42.9451 15.8138 41.0011 15.8036C39.2242 15.7935 37.8827 17.3477 37.8371 19.3727V19.3625Z" fill="#84B140"/>
</g>
</svg>
