<?xml version="1.0" encoding="UTF-8"?>
<svg version="1.1" xmlns="http://www.w3.org/2000/svg" width="73" height="73">
<path d="M0 0 C8.18166536 5.72992052 13.33696064 13.87415672 15.5703125 23.5625 C16.65757126 35.14307006 15.2275678 44.71746478 8.5078125 54.3125 C1.97233305 62.14102055 -6.86127217 66.94581472 -17.0078125 67.8984375 C-28.48527369 68.02053815 -37.40707193 66.15397889 -46.35546875 58.68359375 C-53.93044045 50.93743625 -57.68964693 42.12631323 -57.8046875 31.3125 C-57.62051179 20.32696033 -54.37199688 11.32928873 -46.4296875 3.5625 C-32.45842257 -7.19887196 -15.42363873 -9.12523963 0 0 Z " fill="#FCFCFC" transform="translate(57.4296875,5.4375)"/>
<path d="M0 0 C1.51815699 0.00015911 3.0363194 0.00585313 4.55444336 0.01586914 C5.35208603 0.01728409 6.1497287 0.01869904 6.97154236 0.02015686 C9.52916146 0.02577223 12.08669429 0.03832727 14.64428711 0.05102539 C16.37410356 0.05603841 18.10392137 0.06060166 19.83374023 0.06469727 C24.08312264 0.07574664 28.33244023 0.09302153 32.58178711 0.11352539 C33.14428711 2.05102539 33.14428711 2.05102539 33.58178711 4.11352539 C32.58178711 5.11352539 32.58178711 5.11352539 29.16357422 5.22705078 C27.64541723 5.22689167 26.12725482 5.22119765 24.60913086 5.21118164 C23.81148819 5.20976669 23.01384552 5.20835175 22.19203186 5.20689392 C19.63441276 5.20127856 17.07687993 5.18872351 14.51928711 5.17602539 C12.78947066 5.17101237 11.05965285 5.16644912 9.32983398 5.16235352 C5.08045158 5.15130414 0.83113399 5.13402925 -3.41821289 5.11352539 C-3.98071289 3.17602539 -3.98071289 3.17602539 -4.41821289 1.11352539 C-3.41821289 0.11352539 -3.41821289 0.11352539 0 0 Z " fill="#21300B" transform="translate(22.418212890625,32.886474609375)"/>
<path d="M0 0 C1.58206057 0.00667536 3.16410534 0.0186375 4.74609375 0.03515625 C5.55240234 0.03966797 6.35871094 0.04417969 7.18945312 0.04882812 C9.18753131 0.06065107 11.18557158 0.07858711 13.18359375 0.09765625 C13.22631475 1.7637753 13.22423207 3.4314851 13.18359375 5.09765625 C12.18359375 6.09765625 12.18359375 6.09765625 8.5859375 6.1953125 C7.09762508 6.18863845 5.60932943 6.17667808 4.12109375 6.16015625 C3.36248047 6.15564453 2.60386719 6.15113281 1.82226562 6.14648438 C-0.05732496 6.13466305 -1.93687524 6.11672703 -3.81640625 6.09765625 C-4.19859392 4.44150968 -4.53035727 2.77308601 -4.81640625 1.09765625 C-3.81640625 0.09765625 -3.81640625 0.09765625 0 0 Z " fill="#969595" transform="translate(22.81640625,20.90234375)"/>
<path d="M0 0 C1.58206057 0.00667536 3.16410534 0.0186375 4.74609375 0.03515625 C5.55240234 0.03966797 6.35871094 0.04417969 7.18945312 0.04882812 C9.18753131 0.06065107 11.18557158 0.07858711 13.18359375 0.09765625 C13.74609375 2.03515625 13.74609375 2.03515625 14.18359375 4.09765625 C13.18359375 5.09765625 13.18359375 5.09765625 9.3671875 5.1953125 C7.78512693 5.18863714 6.20308216 5.176675 4.62109375 5.16015625 C3.81478516 5.15564453 3.00847656 5.15113281 2.17773438 5.14648438 C0.17965619 5.13466143 -1.81838408 5.11672539 -3.81640625 5.09765625 C-4.37890625 3.16015625 -4.37890625 3.16015625 -4.81640625 1.09765625 C-3.81640625 0.09765625 -3.81640625 0.09765625 0 0 Z " fill="#8E8C8C" transform="translate(40.81640625,44.90234375)"/>
</svg>
